<svg width="22" height="23" viewBox="0 0 22 23" fill="none" xmlns="http://www.w3.org/2000/svg">
<path fill-rule="evenodd" clip-rule="evenodd" d="M6.41687 3.96521C6.79656 3.96521 7.10437 4.27301 7.10437 4.65271V6.18137C9.69646 5.95053 12.3039 5.95053 14.896 6.18137V4.65271C14.896 4.27301 15.2038 3.96521 15.5835 3.96521C15.9632 3.96521 16.271 4.27301 16.271 4.65271V6.31778C17.6397 6.51129 18.7209 7.59381 18.9039 8.97464L18.9833 9.57318C19.317 12.0907 19.2881 14.643 18.8977 17.1522C18.7043 18.3953 17.6944 19.35 16.4425 19.4735L15.3489 19.5814C12.4568 19.8666 9.54359 19.8666 6.65146 19.5814L5.55788 19.4735C4.30595 19.35 3.29609 18.3953 3.10267 17.1522C2.71221 14.643 2.68338 12.0907 3.01708 9.57319L3.09642 8.97464C3.27946 7.59379 4.36071 6.51126 5.72937 6.31777V4.65271C5.72937 4.27301 6.03717 3.96521 6.41687 3.96521ZM6.82493 7.58861C9.60169 7.31478 12.3987 7.31478 15.1754 7.58861L16.0054 7.67047C16.7999 7.74882 17.4359 8.36387 17.5408 9.15532L17.6202 9.75386C17.6479 9.96296 17.673 10.1723 17.6954 10.3819H4.30492C4.32736 10.1723 4.35244 9.96297 4.38016 9.75387L4.4595 9.15533C4.56441 8.36387 5.20042 7.74882 5.99493 7.67047L6.82493 7.58861ZM4.19563 11.7569C4.10563 13.4876 4.1943 15.2248 4.46132 16.9408C4.55834 17.5643 5.06487 18.0432 5.69282 18.1051L6.78641 18.213C9.58879 18.4893 12.4116 18.4893 15.2139 18.213L16.3075 18.1051C16.9355 18.0432 17.442 17.5643 17.539 16.9408C17.806 15.2248 17.8947 13.4876 17.8047 11.7569H4.19563Z" fill="#524D66"/>
</svg>
