<svg width="18" height="18" viewBox="0 0 18 18" fill="none" xmlns="http://www.w3.org/2000/svg">
<path d="M14.3655 3.14453C14.0941 3.14453 13.8477 3.25455 13.6695 3.43273C13.4913 3.61092 13.3813 3.85731 13.3813 4.12877L13.3813 11.4969L4.71048 2.8261C4.32626 2.44189 3.70331 2.44119 3.31841 2.8261C2.9335 3.21101 2.9342 3.83396 3.31841 4.21817L11.9892 12.889L4.62107 12.889C4.07677 12.889 3.63684 13.3289 3.63684 13.8732C3.63684 14.4175 4.07677 14.8575 4.62107 14.8575L14.3642 14.8575C14.4936 14.8575 14.621 14.8318 14.7421 14.7817C14.9822 14.6822 15.1745 14.4899 15.274 14.2498C15.3241 14.1287 15.3498 14.0013 15.3498 13.8719L15.3498 4.12877C15.3498 3.58447 14.9098 3.14453 14.3655 3.14453Z" fill="#F2F2F7"/>
</svg>
