<svg width="28" height="28" viewBox="0 0 28 28" fill="none" xmlns="http://www.w3.org/2000/svg">
<rect width="28" height="28" rx="8" fill="white" fill-opacity="0.08"/>
<g opacity="0.4">
<path fill-rule="evenodd" clip-rule="evenodd" d="M18.8622 19.8427L18.8628 19.8414L18.8758 19.8087L21.1249 8.46944V8.43261C21.1249 8.15009 21.0205 7.90344 20.7933 7.7555C20.5945 7.626 20.3659 7.61678 20.2057 7.62894C20.0362 7.64181 19.8763 7.68412 19.7657 7.71934C19.7087 7.73746 19.6611 7.75492 19.627 7.76813C19.6099 7.77475 19.5961 7.78038 19.586 7.78457L19.5761 7.78873L7.0362 12.7079L7.03275 12.7092C7.02598 12.7116 7.01702 12.715 7.0062 12.7192C6.98464 12.7276 6.95528 12.7396 6.9208 12.7552C6.85309 12.7859 6.75954 12.8333 6.66466 12.8982C6.50352 13.0086 6.19668 13.2698 6.2485 13.684C6.29141 14.0271 6.52789 14.2449 6.68732 14.3577C6.77278 14.4182 6.85454 14.4618 6.91441 14.4903C6.94474 14.5048 6.97051 14.5158 6.9897 14.5236C6.99932 14.5276 7.00737 14.5307 7.01359 14.533L7.02156 14.536L7.02666 14.5379L9.22059 15.2765C9.21318 15.4142 9.22683 15.5545 9.26334 15.693L10.3623 19.8618C10.4926 20.3561 10.9398 20.7004 11.451 20.7C11.9091 20.6997 12.3155 20.4225 12.4882 20.0089L14.2039 18.1744L17.1507 20.4336L17.1926 20.4518C17.4603 20.5687 17.7104 20.6057 17.9391 20.5744C18.1675 20.5432 18.349 20.4475 18.4853 20.3384C18.6194 20.2311 18.7114 20.11 18.7692 20.0188C18.7985 19.9725 18.8204 19.9317 18.8356 19.9011C18.8433 19.8857 18.8493 19.8727 18.8538 19.8625L18.8594 19.8494L18.8614 19.8446L18.8622 19.8427ZM10.3511 15.4062C10.3262 15.3115 10.3654 15.2114 10.4481 15.1589L17.8896 10.4332C17.8896 10.4332 18.3273 10.1675 18.3116 10.4332C18.3116 10.4332 18.3898 10.4802 18.1552 10.699C17.9328 10.9068 12.8515 15.8126 12.3373 16.309C12.3076 16.3376 12.2899 16.3705 12.2795 16.4104L11.4501 19.575L10.3511 15.4062Z" fill="white"/>
</g>
</svg>
