<svg width="28" height="28" viewBox="0 0 28 28" fill="none" xmlns="http://www.w3.org/2000/svg">
<rect width="28" height="28" rx="8" fill="white" fill-opacity="0.08"/>
<g opacity="0.4">
<path d="M13.9999 11.2918C12.5041 11.2918 11.2916 12.5043 11.2916 14.0001C11.2916 15.4959 12.5041 16.7085 13.9999 16.7085C15.4957 16.7085 16.7082 15.4959 16.7082 14.0001C16.7082 12.5043 15.4957 11.2918 13.9999 11.2918Z" fill="white"/>
<path fill-rule="evenodd" clip-rule="evenodd" d="M9.64119 6.56801C12.5146 6.24686 15.4852 6.24686 18.3586 6.56801C19.9406 6.74482 21.2166 7.9913 21.4023 9.57885C21.7459 12.5164 21.7459 15.4839 21.4023 18.4214C21.2166 20.0089 19.9406 21.2554 18.3586 21.4322C15.4852 21.7534 12.5146 21.7534 9.64119 21.4322C8.05919 21.2554 6.7832 20.0089 6.59752 18.4214C6.25395 15.4839 6.25395 12.5164 6.59752 9.57885C6.7832 7.9913 8.05919 6.74482 9.64119 6.56801ZM18.1666 9.00012C17.7063 9.00012 17.3332 9.37322 17.3332 9.83345C17.3332 10.2937 17.7063 10.6668 18.1666 10.6668C18.6268 10.6668 18.9999 10.2937 18.9999 9.83345C18.9999 9.37322 18.6268 9.00012 18.1666 9.00012ZM10.0416 14.0001C10.0416 11.814 11.8138 10.0418 13.9999 10.0418C16.186 10.0418 17.9582 11.814 17.9582 14.0001C17.9582 16.1862 16.186 17.9585 13.9999 17.9585C11.8138 17.9585 10.0416 16.1862 10.0416 14.0001Z" fill="white"/>
</g>
</svg>
