<svg width="28" height="28" viewBox="0 0 28 28" fill="none" xmlns="http://www.w3.org/2000/svg">
<rect width="28" height="28" rx="8" fill="white" fill-opacity="0.08"/>
<g opacity="0.4">
<path d="M8.5625 6.40625C7.6823 6.40625 6.96875 7.1198 6.96875 8C6.96875 8.8802 7.6823 9.59375 8.5625 9.59375C9.4427 9.59375 10.1562 8.8802 10.1562 8C10.1562 7.1198 9.4427 6.40625 8.5625 6.40625Z" fill="white"/>
<path d="M7.0625 10.9062C7.01072 10.9062 6.96875 10.9482 6.96875 11V20.75C6.96875 20.8018 7.01072 20.8438 7.0625 20.8438H10.0625C10.1143 20.8438 10.1562 20.8018 10.1562 20.75V11C10.1562 10.9482 10.1143 10.9062 10.0625 10.9062H7.0625Z" fill="white"/>
<path d="M11.9375 10.9062C11.8857 10.9062 11.8438 10.9482 11.8438 11V20.75C11.8438 20.8018 11.8857 20.8438 11.9375 20.8438H14.9375C14.9893 20.8438 15.0312 20.8018 15.0312 20.75V15.5C15.0312 15.127 15.1794 14.7694 15.4431 14.5056C15.7069 14.2419 16.0645 14.0938 16.4375 14.0938C16.8105 14.0938 17.1681 14.2419 17.4319 14.5056C17.6956 14.7694 17.8438 15.127 17.8438 15.5V20.75C17.8438 20.8018 17.8857 20.8438 17.9375 20.8438H20.9375C20.9893 20.8438 21.0312 20.8018 21.0312 20.75V14.2852C21.0312 12.4651 19.4483 11.0412 17.6374 11.2059C17.0789 11.2566 16.5267 11.3955 16.0111 11.6165L15.0312 12.0364V11C15.0312 10.9482 14.9893 10.9062 14.9375 10.9062H11.9375Z" fill="white"/>
</g>
</svg>
